<svg height="138" viewBox="0 0 485 138" width="485" xmlns="http://www.w3.org/2000/svg"><g fill="#4a90e2" fill-rule="evenodd" transform=""><path d="m101.162588 96.3780952c5.387742-.5553297 9.475171-5.1796703 9.289249-10.7295604-.185351-5.5493223-4.830546-9.9891209-10.40421-9.9891209h-.3712733c-5.7601559.1851099-10.2188587 4.9945604-10.0329368 10.7289927.1859218 2.774945 1.3003124 5.1796703 2.9724685 6.8445238-6.3167808 12.3944136-15.9778739 21.4585526-30.4695135 29.0429486-9.847015 5.17967-20.0653033 7.029634-30.2835917 5.735-8.3607807-1.110091-14.8634834-4.80945-18.9514831-10.91467-5.94493707-9.064139-6.50213235-18.8687182-1.4856639-28.6727292 3.5302341-7.0296337 9.1033275-12.209304 12.6335616-14.7991392-.7431171-2.4047252-1.858078-6.474304-2.4152733-9.4337911-26.9398497 19.4234798-24.1527327 45.6914835-15.97787388 58.0853295 6.13085898 9.249817 18.57906908 14.984249 32.32759158 14.984249 3.7155856 0 7.4311713-.37022 11.1473273-1.294633 23.7814593-4.624909 41.8033331-18.684176 52.0216215-39.5873998zm32.699435-22.9382967c-14.120366-16.4639926-34.9287865-25.5281318-58.7102458-25.5281318h-2.9724685c-1.6721562-3.329707-5.2023903-5.5498902-9.1038978-5.5498902h-.3718438c-5.7590152.1851099-10.217718 4.9945605-10.0323665 10.7295605.1859219 5.5493223 4.8305466 9.9891209 10.4042103 9.9891209h.3712734c4.0874294-.1851099 7.6176635-2.7749451 9.1038978-6.2897619h3.3443123c14.1203662 0 27.4970446 4.0695787 39.5739816 12.0241941 9.289249 6.104652 15.977874 14.0592674 19.69346 23.6781685 3.15839 7.7695054 2.972468 15.3539014-.371844 21.8287734-5.20182 9.80401-13.933874 15.168791-25.453045 15.168791-7.431742 0-14.4916399-2.220183-18.2077959-3.885037-2.0434295 1.849963-5.7595855 4.809451-8.3607806 6.659982 7.9895072 3.699359 16.164366 5.734432 23.9673815 5.734432 17.835952 0 31.027279-9.804579 36.043747-19.60859 5.387742-10.72956 5.015898-29.2280584-8.917976-44.9516115zm-94.3821496 26.082326c.1859219 5.5498905 4.8305466 9.9891205 10.4042102 9.9891205h.3718438c5.7595855-.184542 10.2182883-4.99456 10.0323665-10.7289923-.1853516-5.5498901-4.8305466-9.9891209-10.4042103-9.9891209h-.3712734c-.3718437 0-.9296093 0-1.3003124.1845421-7.6176635-12.578956-10.7760539-26.2674358-9.6610931-41.066575.7425469-11.0992125 4.4587029-20.7186814 10.9614055-28.6732968 5.3877419-6.8445238 15.7919521-10.17423075 22.8524203-10.35877283 19.6934596-.3702198 28.0536705 24.04782043 28.6114355 33.85239923 2.415273.5547619 6.502703 1.8499634 9.28982 2.7749451-2.229922-29.9673626-20.808991-45.5063736-38.6443726-45.5063736-16.7215613 0-32.14224 12.0241941-38.2736692 29.7828205-8.5461323 23.6781685-2.9724686 46.4313553 7.4317416 64.3750916-.9284687 1.2946336-1.4862342 3.3297069-1.3003124 5.3647802z" fill-rule="nonzero"/><text font-family="Tungsten-Medium, Tungsten" font-size="120" font-weight="400" letter-spacing="1.89999998"><tspan x="182" y="115">CODE LAB</tspan><tspan x="491.08" y="115"/></text></g></svg>